{
  "asset": {
    "version": "2.0",
    "generator": "gltfeditor.com"
  },
  "buffers": [
    {
      "uri": "data:application/octet-stream;base64,",
      "byteLength": 462572
    }
  ],
  "bufferViews": [
    {
      "buffer": 0,
      "byteLength": 52368,
      "byteOffset": 28032,
      "target": 34962,
      "byteStride": 8
    },
    {
      "buffer": 0,
      "byteLength": 78552,
      "byteOffset": 80400,
      "target": 34962,
      "byteStride": 12
    },
    {
      "buffer": 0,
      "byteLength": 52368,
      "byteOffset": 158952,
      "target": 34962,
      "byteStride": 16
    },
    {
      "buffer": 0,
      "byteLength": 28032,
      "byteOffset": 0,
      "target": 34963
    }
  ],
  "accessors": [
    {
      "bufferView": 0,
      "byteOffset": 0,
      "componentType": 5123,
      "normalized": false,
      "count": 3273,
      "max": [
        18,
        18,
        18,
        18
      ],
      "min": [
        0,
        0,
        0,
        0
      ],
      "type": "VEC4"
    },
    {
      "bufferView": 0,
      "byteOffset": 26184,
      "componentType": 5126,
      "normalized": false,
      "count": 3273,
      "max": [
        0.990805983543396,
        0.9880298972129822
      ],
      "min": [
        0.014079390093684196,
        0.008445978164672852
      ],
      "type": "VEC2"
    },
    {
      "bufferView": 1,
      "byteOffset": 0,
      "componentType": 5126,
      "normalized": false,
      "count": 3273,
      "max": [
        1,
        0.9999808073043823,
        0.9944415092468262
      ],
      "min": [
        -1,
        -0.9999808073043823,
        -1
      ],
      "type": "VEC3"
    },
    {
      "bufferView": 1,
      "byteOffset": 39276,
      "componentType": 5126,
      "normalized": false,
      "count": 3273,
      "max": [
        0.1809539943933487,
        0.569136917591095,
        1.5065499544143677
      ],
      "min": [
        -0.13100001215934753,
        -0.5691370964050293,
        0
      ],
      "type": "VEC3"
    },
    {
      "bufferView": 2,
      "byteOffset": 0,
      "componentType": 5126,
      "normalized": false,
      "count": 3273,
      "max": [
        1,
        0.989919900894165,
        0.9510763883590698,
        0.9196179509162903
      ],
      "min": [
        0.010080089792609215,
        0,
        0,
        0
      ],
      "type": "VEC4"
    },
    {
      "bufferView": 3,
      "byteOffset": 0,
      "componentType": 5123,
      "normalized": false,
      "count": 14016,
      "max": [
        3272
      ],
      "min": [
        0
      ],
      "type": "SCALAR"
    }
  ],
  "scene": 0,
  "scenes": [
    {
      "nodes": [
        21
      ],
      "name": "CesiumMan"
    }
  ],
  "nodes": [
    {
      "name": "Skeleton_neck_joint_2",
      "matrix": [
        -0.9980550408363342,
        0.030346959829330444,
        -0.05446212366223335,
        0,
        0.030316665768623352,
        0.9995394945144653,
        0.0013825061032548547,
        0,
        0.05447901785373688,
        -0.0002712930436246097,
        -0.998515784740448,
        0,
        -0.05203980579972267,
        -1.2620165357191127e-8,
        -0.000002618097596496227,
        1
      ]
    },
    {
      "name": "Skeleton_neck_joint_1",
      "children": [
        0
      ],
      "matrix": [
        0.13224823772907257,
        -0.03490397334098816,
        -0.990601658821106,
        0,
        0.0049071586690843105,
        0.999390721321106,
        -0.03455853462219238,
        0,
        0.9912042617797852,
        -0.000290735304588452,
        0.13233892619609833,
        0,
        -0.0000024885493985493667,
        0.0000024169928565243026,
        0.0648387148976326,
        1
      ]
    },
    {
      "name": "Skeleton_arm_joint_L__2_",
      "matrix": [
        0.9292582273483276,
        -0.3266878128051758,
        -0.17249709367752075,
        0,
        0.31919026374816895,
        0.9450762271881104,
        -0.07034745067358017,
        0,
        0.18600450456142426,
        0.010311574675142765,
        0.982495129108429,
        0,
        -0.09332464635372162,
        0.14300000667572021,
        0.0781477689743042,
        1
      ]
    },
    {
      "name": "Skeleton_arm_joint_L__3_",
      "children": [
        2
      ],
      "matrix": [
        0.9073977470397949,
        -0.3051566481590271,
        -0.2889772355556488,
        0,
        0.3049757778644562,
        0.9512075185775757,
        -0.04683053866028786,
        0,
        0.2891681492328644,
        -0.04563717171549797,
        0.9561895132064819,
        0,
        0.013221753761172295,
        0.21549950540065765,
        0.10933220386505127,
        1
      ]
    },
    {
      "name": "Skeleton_arm_joint_L__4_",
      "children": [
        3
      ],
      "matrix": [
        -0.9990218281745911,
        -0.02945847250521183,
        0.03298696130514145,
        0,
        -0.04406500607728958,
        0.7266037464141846,
        -0.6856424808502197,
        0,
        -0.003770469455048442,
        -0.6864250898361206,
        -0.7271909117698669,
        0,
        -0.0000374945520889014,
        0.0880000963807106,
        -0.00005907345621380955,
        1
      ]
    },
    {
      "name": "Skeleton_arm_joint_R__3_",
      "matrix": [
        0.6912567019462585,
        0.07184573262929916,
        0.7190287709236145,
        0,
        0.015618491917848587,
        0.9933270812034607,
        -0.11426900327205658,
        0,
        -0.7224406599998474,
        0.09021937847137451,
        0.6855220198631287,
        0,
        0.03137035295367241,
        -0.14300094544887543,
        -0.1176116019487381,
        1
      ]
    },
    {
      "name": "Skeleton_arm_joint_R__2_",
      "children": [
        5
      ],
      "matrix": [
        -0.6984121799468994,
        -0.23150956630706787,
        -0.6772180199623108,
        0,
        -0.23318807780742645,
        0.9682111740112305,
        -0.09050079435110092,
        0,
        0.6766417026519775,
        0.0947122871875763,
        -0.7301955819129944,
        0,
        -0.03554627671837807,
        -0.2154989093542099,
        0.10423316061496735,
        1
      ]
    },
    {
      "name": "Skeleton_arm_joint_R",
      "children": [
        6
      ],
      "matrix": [
        -0.8658851385116577,
        -0.3319240212440491,
        -0.3742581903934479,
        0,
        -0.4926092326641083,
        0.6959707140922546,
        0.5224565863609314,
        0,
        0.08705683797597885,
        0.6367504000663757,
        -0.7661394476890564,
        0,
        -0.00003916914283763617,
        -0.08800002187490463,
        -0.00005932735075475648,
        1
      ]
    },
    {
      "name": "torso_joint_3",
      "children": [
        1,
        4,
        7
      ],
      "matrix": [
        0.21086210012435913,
        0.135456845164299,
        0.9680858850479126,
        0,
        -0.03513112664222717,
        0.9907627701759338,
        -0.1309778243303299,
        0,
        -0.9768843650817871,
        -0.006391662172973156,
        0.21367286145687103,
        0,
        -0.2505166530609131,
        5.721931302105077e-7,
        -0.00007283459126483649,
        1
      ]
    },
    {
      "name": "Skeleton_torso_joint_2",
      "children": [
        8
      ],
      "matrix": [
        -0.012249584309756756,
        -0.005708500277251005,
        -0.9999085664749146,
        0,
        -0.024269068613648415,
        0.9996909499168396,
        -0.005409938748925924,
        0,
        0.9996293783187866,
        0.02420055866241455,
        -0.0123843252658844,
        0,
        0.000013486051102518104,
        0.0009866032050922513,
        0.1454169601202011,
        1
      ]
    },
    {
      "name": "leg_joint_L_5",
      "matrix": [
        0.8125833868980408,
        0.09333250671625137,
        0.5753242373466492,
        0,
        -0.08412902802228928,
        0.9955406785011292,
        -0.04267933964729309,
        0,
        -0.5767417550086975,
        -0.01372094452381134,
        0.8168113231658936,
        0,
        -0.06558384001255035,
        0.0010905949166044593,
        0.029291346669197083,
        1
      ]
    },
    {
      "name": "leg_joint_L_3",
      "children": [
        10
      ],
      "matrix": [
        -0.5094584226608276,
        0.030546098947525024,
        -0.8599540591239929,
        0,
        0.056159067898988724,
        0.998420000076294,
        0.002194466767832637,
        0,
        0.8586612343788147,
        -0.04717615619301796,
        -0.510368287563324,
        0,
        0.27578991651535034,
        0.0013972627930343151,
        0.004122501704841852,
        1
      ]
    },
    {
      "name": "leg_joint_L_2",
      "children": [
        11
      ],
      "matrix": [
        0.4531876742839813,
        0.004322035238146782,
        -0.8914042115211487,
        0,
        -0.0023965404834598303,
        0.9999896883964539,
        0.0036301244981586933,
        0,
        0.8914117217063904,
        0.00049115956062451,
        0.45319387316703796,
        0,
        0.20916399359703064,
        0.009055479429662228,
        -0.16426970064640045,
        1
      ]
    },
    {
      "name": "leg_joint_L_1",
      "children": [
        12
      ],
      "matrix": [
        0.8337377905845642,
        0.03933334723114967,
        -0.5507572889328003,
        0,
        -0.035921938717365265,
        0.99921053647995,
        0.016981741413474083,
        0,
        0.5509904623031616,
        0.005625952500849962,
        0.8344925045967102,
        0,
        0.02852010913193226,
        0.06762178242206573,
        -0.06295998394489288,
        1
      ]
    },
    {
      "name": "leg_joint_R_5",
      "matrix": [
        0.7887729406356812,
        -0.1799176186323166,
        0.5877645015716553,
        0,
        0.14543448388576508,
        0.983679473400116,
        0.10593780875205994,
        0,
        -0.5972315073013306,
        0.00192035804502666,
        0.8020654320716858,
        0,
        -0.06681974232196808,
        -0.001072174054570496,
        0.026351265609264374,
        1
      ]
    },
    {
      "name": "leg_joint_R_3",
      "children": [
        14
      ],
      "matrix": [
        -0.948764979839325,
        0.006234690546989441,
        -0.3159189820289612,
        0,
        -0.008068843744695187,
        0.9990007877349854,
        0.04394765570759773,
        0,
        0.31587764620780945,
        0.0442451536655426,
        -0.9477676749229431,
        0,
        0.27546030282974243,
        -0.0014317348832264543,
        -0.014104800298810005,
        1
      ]
    },
    {
      "name": "leg_joint_R_2",
      "children": [
        15
      ],
      "matrix": [
        0.6780323386192322,
        -0.010488784871995449,
        -0.7349572777748108,
        0,
        0.012519055046141148,
        0.9999184012413025,
        -0.0027207094244658947,
        0,
        0.7349256277084351,
        -0.007356238551437855,
        0.6781080365180969,
        0,
        0.26089081168174744,
        -0.0090260561555624,
        0.05167096108198166,
        1
      ]
    },
    {
      "name": "leg_joint_R_1",
      "children": [
        16
      ],
      "matrix": [
        -0.3927787244319916,
        -0.065919890999794,
        -0.9172670841217041,
        0,
        -0.023072879761457443,
        0.9978200197219849,
        -0.06182894483208656,
        0,
        0.9193439483642578,
        -0.003121102461591363,
        -0.393443763256073,
        0,
        0.028557173907756805,
        -0.06845434010028839,
        -0.0629584789276123,
        1
      ]
    },
    {
      "name": "Skeleton_torso_joint_1",
      "children": [
        9,
        13,
        17
      ],
      "matrix": [
        0.997208297252655,
        0.008593457750976086,
        -0.07417859882116318,
        0,
        -0.006971830036491156,
        0.9997316002845764,
        0.022092418745160103,
        0,
        0.07434849441051483,
        -0.021513570100069046,
        0.996999979019165,
        0,
        1.3380181407285363e-8,
        -0.027014926075935364,
        0.6624241471290588,
        1
      ]
    },
    {
      "name": "Cesium_Man",
      "mesh": 0
    },
    {
      "name": "Armature",
      "children": [
        18,
        19
      ],
      "matrix": [
        3.422854177870249e-8,
        -0.9999999403953552,
        0,
        0,
        0.9999999403953552,
        3.422854177870249e-8,
        0,
        0,
        0,
        0,
        1,
        0,
        0,
        0,
        0,
        1
      ]
    },
    {
      "name": "Z_UP",
      "children": [
        20
      ],
      "matrix": [
        1,
        0,
        0,
        0,
        0,
        3.422854177870249e-8,
        -0.9999999403953552,
        0,
        0,
        0.9999999403953552,
        3.422854177870249e-8,
        0,
        0,
        0,
        0,
        1
      ]
    }
  ],
  "meshes": [
    {
      "primitives": [
        {
          "attributes": {
            "JOINTS_0": 0,
            "TEXCOORD_0": 1,
            "NORMAL": 2,
            "POSITION": 3,
            "WEIGHTS_0": 4
          },
          "material": 0,
          "mode": 4,
          "indices": 5
        }
      ]
    }
  ],
  "materials": [
    {
      "pbrMetallicRoughness": {
        "baseColorFactor": [
          1,
          1,
          1,
          1
        ],
        "metallicFactor": 0,
        "roughnessFactor": 1,
        "baseColorTexture": {
          "index": 0,
          "texCoord": 0
        }
      },
      "emissiveFactor": [
        0,
        0,
        0
      ],
      "alphaMode": "OPAQUE",
      "doubleSided": false
    }
  ],
  "textures": [
    {
      "sampler": 0,
      "source": 0
    }
  ],
  "samplers": [
    {
      "magFilter": 9729,
      "minFilter": 9986,
      "wrapS": 10497,
      "wrapT": 10497
    }
  ],
  "images": [
    {
      "uri": "data:image/png;base64,",
      "mimeType": "image/png"
    }
  ]
}