<?xml version="1.0" encoding="utf-8"?>
<!-- Generator: Adobe Illustrator 24.3.0, SVG Export Plug-In . SVG Version: 6.00 Build 0)  -->
<svg version="1.1" xmlns="http://www.w3.org/2000/svg" xmlns:xlink="http://www.w3.org/1999/xlink" x="0px" y="0px"
	 viewBox="0 0 240 80" style="enable-background:new 0 0 240 80;" xml:space="preserve">
<style type="text/css">
	.st0{fill:#F26F21;}
	.st1{fill-rule:evenodd;clip-rule:evenodd;}
	.st2{fill-rule:evenodd;clip-rule:evenodd;fill:#F26F21;}
</style>
<g id="Layer_1">
	<g>
		<g>
			<g>
				<g>
					<path class="st0" d="M115.9,44.6h-16v-7.8h16V44.6z"/>
					<path d="M149.8,40.7c0,9-6.7,16-15.5,16h-11.4h-1.2c-0.7,0-1.2-0.4-1.2-1.2V25.9c0-0.7,0.4-1.2,1.2-1.2h6.2h6.4
						C143.1,24.7,149.8,31.7,149.8,40.7z M142.8,40.7c0-5.5-3.5-9-8.5-9h-6.4v17.9h6.4C139.3,49.7,142.8,46.2,142.8,40.7z"/>
					<path d="M153.4,40.7c0-9.4,7.4-16.6,16.6-16.6s16.6,7.2,16.6,16.6s-7.4,16.6-16.6,16.6C160.9,57.3,153.4,50.1,153.4,40.7z
						 M179.4,40.7c0-5.7-4.1-9.5-9.3-9.5c-5.2,0-9.3,3.8-9.3,9.5c0,5.7,4.1,9.5,9.3,9.5C175.3,50.2,179.4,46.4,179.4,40.7z"/>
					<path d="M189.7,47.9c0-0.8,0.4-1.2,1.2-1.2h5c0.7,0,1.1,0.4,1.2,1.1c0.4,1.6,1.7,2.5,4.4,2.5c3,0,3.9-1.2,3.9-2.5
						c0-1.9-2.3-2.7-5.1-3.7c-4.5-1.6-10.2-3.4-10.2-10.4c0-6.4,5.2-9.6,10.7-9.6c5.3,0,10.4,2.9,11,9.5c0,0.8-0.4,1.2-1.2,1.2h-5
						c-0.7,0-1.1-0.4-1.2-1.1c-0.4-1.7-1.6-2.5-3.7-2.5c-2.3,0-3.3,1.2-3.3,2.5c0,1.9,1.9,2.8,4.5,3.8c4.6,1.6,10.8,3.2,10.8,10.3
						c0,6.4-5.1,9.6-11.2,9.6C195.5,57.3,190.3,54.5,189.7,47.9z"/>
					<path d="M236,25.9v4.7c0,0.7-0.4,1.2-1.2,1.2h-6.2v23.8c0,0.7-0.4,1.2-1.2,1.2h-5c-0.7,0-1.2-0.4-1.2-1.2V31.8h-6.2
						c-0.7,0-1.2-0.4-1.2-1.2v-4.7c0-0.7,0.4-1.2,1.2-1.2h13.5h6.2C235.6,24.7,236,25.2,236,25.9z"/>
				</g>
				<g>
					<path class="st0" d="M95.4,42.4c0,0.7,0,1.4-0.1,2.1c-0.1,0.9-0.7,1.3-1.5,1.3h-6.8H75c1,3.3,3.6,4.6,6.5,4.6
						c1.6,0,3.1-0.6,4.2-1.4c0.6-0.5,1-0.7,1.7-0.7l5.3,0c1,0,1.6,0.7,1.1,1.6c-2.2,4.9-6.7,7.4-12.5,7.4c-9.3,0-15.2-6.4-15.2-14.8
						c0-8.3,6.1-14.8,15-14.8C89.4,27.6,95.4,34,95.4,42.4z M87,39.4c-0.9-3.2-3.3-4.3-5.8-4.3c-3.1,0-5.3,1.5-6.2,4.3H87z"/>
				</g>
			</g>
			<g>
				<path class="st1" d="M55.7,59c0.1-2,1.1-3.5,2.8-4.3c1.4-0.7,2.8-0.7,4.2-0.2c1.3,0.5,2.2,1.3,2.8,2.5c0.7,1.3,0.8,2.6,0.4,4
					c-0.6,1.8-1.9,3-3.7,3.5c-0.2,0-0.3,0-0.5,0.1c-0.6,0-1.2,0-1.8,0c-1.4-0.2-2.5-0.9-3.4-2c-0.6-0.8-1-1.7-1-2.8
					C55.7,59.5,55.7,59.3,55.7,59z"/>
				<g>
					<path class="st2" d="M12.5,26.7c0.9-0.7,1.5-1.8,1.7-3c0.2-1.2,0.2-2-0.4-3.2c-1.1-2.5-4-3.8-6.6-2.8C5.2,18.5,4,20,3.8,22
						c-0.2,1.3,0.1,2.5,0.9,3.6C6.6,28.4,10,28.7,12.5,26.7z"/>
				</g>
				<path class="st1" d="M61.4,43c0.2-1.9,0.1-3.7-0.2-5.6c-0.2-0.7-0.3-1.4-0.6-2.1c-0.2-0.6-0.5-1.2-0.7-1.8
					c-0.2-0.5-0.5-1-0.7-1.5c-0.2-0.5-0.6-0.8-0.9-1.2c-0.3-0.5-0.7-0.9-1-1.4c-1.1-1.3-2.4-2.3-3.7-3.2c-0.1,0-0.2-0.1-0.2-0.1
					c-0.6-0.4-1.1-0.7-1.7-0.9c-0.7-0.3-1.3-0.6-2-0.9c-0.2-0.1-0.3-0.1-0.5-0.2c0,0,0,0-0.1,0c-0.9-0.3-1.8-0.5-2.7-0.6
					c-0.2,0-0.5-0.1-0.7-0.1l0,0c0,0,0,0-0.1,0c-0.3,0-0.6-0.1-0.9-0.1c-0.2,0-0.3,0-0.5,0c-0.3,0-0.4,0-0.4,0c0,0-0.1,0-0.2,0
					c0,0,0,0-0.1,0c-4.7,0-6.7,1.4-6.7,1.4l0.2,0.2c0,0.1,0.2,0.2,0.2,0.2c0.7,0.6,1.4,1.4,2.1,2c1.3,1.2,2.5,2.4,3.8,3.7
					c1.9,1.7,3.7,3.5,5.5,5.2c2.2,2.2,2.8,5.4,1.6,8.2c-1,2.3-2.8,3.7-5.3,4.2c-2.3,0.5-4.3,0-6.1-1.5c-0.7-0.6-1.4-1.3-2-2
					l-0.1-0.1c-0.1-0.1-0.1-0.2-0.2-0.2l-3.7-3.9c0,0-0.1-0.1-0.1-0.1c-0.8-0.9-1.6-1.7-2.4-2.6c-1-1.1-2.2-1.9-3.7-2.1
					c-2.5-0.2-4.8,1.1-5.6,3.6c-0.1,0.3-0.2,0.6-0.2,0.9c0,0-0.1,0.7,0,1.5c0,0,0,0,0,0c0,0.4,0.2,0.8,0.4,1.2
					c0.3,0.7,0.7,1.4,1.3,1.9c1.4,1.4,2.9,2.7,4.3,4.1c2.4,2.3,4.7,4.6,7.1,6.9c1,0.9,2,1.4,3.3,1.9c0.7,0.3,1.4,0.5,2.2,0.7
					c0.4,0.1,0.7,0.2,1.2,0.2c0.3,0,0.6,0.1,0.9,0.2c0.7,0.1,1.4,0.2,2.1,0.2c1.4,0,2.8-0.2,4.1-0.6c0.3-0.1,0.6-0.2,0.9-0.3
					c1-0.3,2-0.8,3-1.3c0.7-0.3,1.3-0.5,1.9-1c0.5-0.3,1.8-1.2,3.3-3c1.2-1.4,2.2-3,3-4.7C60.8,46.5,61.2,44.8,61.4,43z"/>
				<path class="st2" d="M8.5,38.8c-0.2,1.9-0.2,3.7,0.2,5.6c0.1,0.7,0.3,1.4,0.6,2.1c0.2,0.6,0.5,1.2,0.7,1.8
					c0.2,0.5,0.5,1,0.7,1.5c0.2,0.5,0.6,0.8,0.9,1.2c0.3,0.5,0.7,0.9,1,1.4c1.1,1.3,2.3,2.4,3.7,3.2c0.1,0,0.2,0.1,0.2,0.1
					c0.6,0.4,1.1,0.7,1.7,1c0.7,0.3,1.3,0.6,2,0.9c0.2,0.1,0.3,0.1,0.5,0.2c0,0,0,0,0.1,0c0.9,0.3,1.8,0.5,2.7,0.6
					c0.2,0,0.5,0.1,0.7,0.1l0,0c0,0,0,0,0.1,0c0.3,0,0.6,0.1,0.9,0.1c0.2,0,0.3,0,0.5,0c0.3,0,0.4,0,0.4,0c0,0,0.1,0,0.2,0
					c0,0,0,0,0.1,0c4.7,0,6.7-1.4,6.7-1.4l-0.2-0.2c0-0.1-0.2-0.2-0.2-0.2c-0.7-0.6-1.4-1.4-2.1-2c-1.3-1.2-2.5-2.5-3.8-3.7
					c-1.8-1.8-3.7-3.5-5.5-5.3c-2.2-2.2-2.8-5.4-1.6-8.2c1-2.3,2.8-3.7,5.3-4.2c2.3-0.5,4.3,0.1,6,1.5c0.7,0.6,1.3,1.3,1.9,2
					l0.1,0.1c0.1,0.1,0.1,0.2,0.2,0.2c0,0,3.7,3.9,3.7,3.9c0,0,0.1,0.1,0.1,0.1c0.8,0.9,1.6,1.7,2.4,2.6c1,1.1,2.2,1.9,3.7,2.1
					c2.5,0.3,4.8-1.1,5.6-3.6c0.1-0.3,0.2-0.6,0.2-0.9c0,0,0.1-0.7,0-1.5c0,0,0,0,0,0c0-0.4-0.2-0.8-0.4-1.2
					c-0.3-0.7-0.7-1.4-1.2-1.9c-1.4-1.4-2.8-2.8-4.3-4.1c-2.4-2.3-4.7-4.6-7.1-6.9c-1-0.9-2-1.4-3.3-1.9c-0.7-0.3-1.4-0.5-2.2-0.7
					c-0.4-0.1-0.7-0.2-1.2-0.2c-0.3,0-0.6-0.1-0.9-0.2c-0.7-0.1-1.4-0.2-2.1-0.2c-1.4,0-2.8,0.2-4.1,0.6c-0.3,0.1-0.6,0.2-0.9,0.2
					c-1,0.3-2,0.8-3,1.3c-0.7,0.3-1.3,0.5-1.9,0.9c-0.5,0.3-1.8,1.2-3.3,3c-1.2,1.4-2.3,3-3,4.6C9.1,35.3,8.7,37.1,8.5,38.8z"/>
			</g>
		</g>
		<g>
			<polygon class="st2" points="120.6,9.2 130.7,9.2 130.7,12.4 127.8,12.4 127.8,19.7 123.5,19.7 123.5,12.4 120.6,12.4 			"/>
			<polygon class="st2" points="129.5,19.7 133.6,9.2 135.8,9.2 138.1,9.2 142.1,19.7 138,19.7 135.8,13.7 133.7,19.7 			"/>
			<polygon class="st0" points="222.7,9.2 222.7,13.4 228.3,13.4 228.3,9.2 231,9.2 231,19.7 228.3,19.7 228.3,15.1 222.7,15.1 
				222.7,19.7 219.9,19.7 219.9,9.2 			"/>
			<polygon class="st0" points="196.3,9.2 196.3,11 192.1,11 192.1,19.7 189.3,19.7 189.3,11 185.1,11 185.1,9.2 			"/>
			<path class="st0" d="M207.1,19.7H204l-1.1-2.3h-4.9l-1.1,2.3h-3.1l4.9-10.4h3.4L207.1,19.7z M200.5,12.2l-1.7,3.6h3.4L200.5,12.2
				z"/>
			<rect x="233.2" y="9.2" class="st0" width="2.8" height="10.4"/>
			<polygon class="st0" points="170.8,9.2 170.8,13.4 176.4,13.4 176.4,9.2 179.1,9.2 179.1,19.7 176.4,19.7 176.4,15.1 170.8,15.1 
				170.8,19.7 168,19.7 168,9.2 			"/>
			<rect x="181.3" y="9.2" class="st0" width="2.8" height="10.4"/>
			<path class="st0" d="M207,16.7c-0.2-0.7-0.4-1.4-0.4-2.2c0-1.1,0.2-2.1,0.7-3c0.5-0.9,1.4-1.6,2.4-2c0.9-0.4,2-0.6,3.1-0.6
				c1.2,0,2.4,0.3,3.5,0.7c1,0.4,1.8,1.3,2,2.4c0,0.2,0.1,0.5,0.1,0.7h-3.1c0-1.4-1.1-2.3-2.5-2.2c-0.5,0-0.9,0.1-1.4,0.2
				c-0.7,0.2-1.3,0.8-1.5,1.5s-0.4,1.4-0.4,2.2c0,0.6,0.1,1.2,0.2,1.9c0.2,0.7,0.8,1.4,1.5,1.6c0.5,0.2,0.9,0.3,1.5,0.3
				c0.5,0,0.9-0.1,1.3-0.2c0.5-0.2,1-0.6,1.2-1.1c0.2-0.3,0.2-0.7,0.2-1.1h2.9c0,0.3,0,0.7-0.1,1c-0.2,1-1,1.9-1.9,2.3
				c-1.1,0.5-2.3,0.7-3.6,0.7c-1,0-1.9-0.2-2.8-0.4C208.6,19,207.5,18,207,16.7"/>
			<polygon class="st2" points="141,9.2 151.1,9.2 151.1,12.4 148.2,12.4 148.2,19.7 143.9,19.7 143.9,12.4 141,12.4 			"/>
			<polygon class="st2" points="150,19.7 154.1,9.2 156.3,9.2 158.5,9.2 162.5,19.7 158.4,19.7 156.3,13.7 154.1,19.7 			"/>
		</g>
	</g>
</g>
<g id="Layer_2">
</g>
</svg>
