<svg id="Logo_Tata_Hitachi" data-name="Logo Tata Hitachi" xmlns="http://www.w3.org/2000/svg" width="253.152" height="24" viewBox="0 0 253.152 24">
  <path id="Path_46" data-name="Path 46" d="M263.278,83.987H285.7v6.779h-6.417v16.12h-9.59V90.766h-6.416Z" transform="translate(-263.278 -83.303)" fill="#fff" fill-rule="evenodd"/>
  <path id="Path_47" data-name="Path 47" d="M286.419,106.856l9.055-22.868h9.812l9.064,22.868h-9.156l-4.813-13.12-4.811,13.12Z" transform="translate(-266.475 -83.303)" fill="#fff" fill-rule="evenodd"/>
  <path id="Path_48" data-name="Path 48" d="M525.656,83.888v9.172H538.12c0,.037-.007-9.173,0-9.172s6.093,0,6.163,0c0,0,.016,22.916,0,22.945H538.12V96.73c0,.036-12.464,0-12.464,0,.014.042,0,10.111,0,10.1h-6.163s.039-22.945,0-22.945Z" transform="translate(-302.184 -83.289)" fill="#fff"/>
  <path id="Path_49" data-name="Path 49" d="M454.741,83.888v3.9h-9.428v19.044h-6.17V87.787h-9.426s.007-3.89,0-3.9c.007.009,25.025,0,25.025,0" transform="translate(-288.445 -83.289)" fill="#fff"/>
  <path id="Path_50" data-name="Path 50" d="M481.857,106.831H475l-2.334-4.932h-10.9s-2.324,4.936-2.361,4.932h-6.86l10.877-22.943c0,.01,7.56,0,7.56,0Zm-14.6-16.518-3.819,7.915h7.591Z" transform="translate(-291.943 -83.289)" fill="#fff"/>
  <rect id="Rectangle_66" data-name="Rectangle 66" width="6.169" height="22.945" transform="translate(246.983 0.598)" fill="#fff"/>
  <path id="Path_51" data-name="Path 51" d="M391.736,83.888s-.008,9.242,0,9.172H404.19c0,.037-.022-9.173,0-9.172-.022,0,6.1,0,6.167,0,0,0,.025,22.916,0,22.945H404.19V96.73c0,.036-12.454,0-12.454,0,0,.042-.008,10.111,0,10.1h-6.163s.025-22.945,0-22.945Z" transform="translate(-281.768 -83.289)" fill="#fff"/>
  <rect id="Rectangle_67" data-name="Rectangle 67" width="6.16" height="22.945" transform="translate(133.178 0.598)" fill="#fff"/>
  <path id="Path_52" data-name="Path 52" d="M486.172,100.295a14.416,14.416,0,0,1-.83-4.875,12.816,12.816,0,0,1,1.6-6.669,10.324,10.324,0,0,1,5.3-4.34,19.6,19.6,0,0,1,6.835-1.217,19.894,19.894,0,0,1,7.784,1.608,7.437,7.437,0,0,1,4.4,5.278,11.093,11.093,0,0,1,.214,1.456H504.52a4.752,4.752,0,0,0-5.45-4.8,9.221,9.221,0,0,0-3.055.513,5.512,5.512,0,0,0-3.363,3.359,13.963,13.963,0,0,0-.852,4.814,14.882,14.882,0,0,0,.59,4.013,5.544,5.544,0,0,0,3.37,3.622,9.7,9.7,0,0,0,3.31.6,9.344,9.344,0,0,0,2.851-.434,4.434,4.434,0,0,0,2.693-2.373,5.912,5.912,0,0,0,.5-2.458h6.509a11.839,11.839,0,0,1-.313,2.172A7.38,7.38,0,0,1,507,105.6a20.866,20.866,0,0,1-7.927,1.59,21.139,21.139,0,0,1-6.25-.944,10.054,10.054,0,0,1-6.648-5.954" transform="translate(-296.872 -83.193)" fill="#fff"/>
  <path id="Path_53" data-name="Path 53" d="M315.991,83.987h22.418v6.779h-6.415v16.12h-9.583V90.766h-6.42Z" transform="translate(-271.241 -83.303)" fill="#fff" fill-rule="evenodd"/>
  <path id="Path_54" data-name="Path 54" d="M339.13,106.856l9.061-22.868h9.818l9.051,22.868h-9.15L353.1,93.736l-4.813,13.12Z" transform="translate(-274.76 -83.303)" fill="#fff" fill-rule="evenodd"/>
</svg>
