<svg id="_360_icon_48x48" data-name="360 icon/48x48" xmlns="http://www.w3.org/2000/svg" width="48" height="48" viewBox="0 0 48 48">
  <rect id="Rectangle_123" data-name="Rectangle 123" width="48" height="48" fill="#fff" opacity="0"/>
  <g id="Group_145" data-name="Group 145" transform="translate(-936 -870)">
    <g id="Group_144" data-name="Group 144" transform="translate(910 850.467)">
      <path id="Path_137" data-name="Path 137" d="M60.846,40.534v2.29c1.988.64,3,1.348,3,1.785,0,.506-1.92,2.123-8.05,2.9a1.123,1.123,0,0,0-.943,1.213,1.1,1.1,0,0,0,1.212.943C59.027,49.292,66,48.045,66,44.643,66,42.791,63.912,41.443,60.846,40.534Z" fill="#737373"/>
      <path id="Path_138" data-name="Path 138" d="M47.339,51.447a1.1,1.1,0,0,0,0,1.516,1.068,1.068,0,0,0,.775.3,1.122,1.122,0,0,0,.774-.3L52.156,49.7a1.143,1.143,0,0,0,0-1.55l-3.3-3.233a1.072,1.072,0,0,0-1.516,1.515l1.415,1.415c-8.287-.2-12.6-2.257-12.6-3.2,0-.438.977-1.145,2.964-1.785V40.567c-3.032.876-5.12,2.224-5.12,4.076,0,3.5,7.444,5.221,14.787,5.356Z" fill="#737373"/>
    </g>
    <path id="Path_139" data-name="Path 139" d="M2.739-4.321a1.189,1.189,0,0,0,.774-.264.919.919,0,0,0,.325-.757.9.9,0,0,0-.259-.647.92.92,0,0,0-.7-.271,1.249,1.249,0,0,0-.491.083.79.79,0,0,0-.305.22,1.656,1.656,0,0,0-.212.352q-.1.215-.183.405a.343.343,0,0,1-.176.161.692.692,0,0,1-.293.059.506.506,0,0,1-.359-.159A.561.561,0,0,1,.7-5.562,1.116,1.116,0,0,1,.852-6.1,1.951,1.951,0,0,1,1.3-6.631a2.258,2.258,0,0,1,.735-.408,2.957,2.957,0,0,1,.981-.154,2.736,2.736,0,0,1,.864.129,2.019,2.019,0,0,1,.679.374A1.613,1.613,0,0,1,5-6.123a1.656,1.656,0,0,1,.146.693,1.581,1.581,0,0,1-.212.837,2.825,2.825,0,0,1-.608.681,2.692,2.692,0,0,1,.642.469,1.8,1.8,0,0,1,.393.583,1.8,1.8,0,0,1,.132.691,2.157,2.157,0,0,1-.178.859,2.192,2.192,0,0,1-.525.74,2.5,2.5,0,0,1-.823.508A2.909,2.909,0,0,1,2.91.122a2.519,2.519,0,0,1-1.05-.21A2.417,2.417,0,0,1,1.1-.613a2.39,2.39,0,0,1-.454-.652,1.415,1.415,0,0,1-.154-.557.6.6,0,0,1,.183-.457.638.638,0,0,1,.457-.173.485.485,0,0,1,.264.081.38.38,0,0,1,.166.193A3.287,3.287,0,0,0,2.1-1.169a1.033,1.033,0,0,0,.818.33A1.229,1.229,0,0,0,3.5-.989a1.216,1.216,0,0,0,.464-.442,1.254,1.254,0,0,0,.183-.679,1.238,1.238,0,0,0-.312-.9,1.15,1.15,0,0,0-.869-.325q-.1,0-.3.02t-.264.02a.592.592,0,0,1-.415-.134A.481.481,0,0,1,1.841-3.8a.465.465,0,0,1,.176-.378.81.81,0,0,1,.522-.144Zm5.135.449A2.226,2.226,0,0,1,8.6-4.458a1.968,1.968,0,0,1,.874-.19,2.1,2.1,0,0,1,.857.173,2.06,2.06,0,0,1,.688.493,2.252,2.252,0,0,1,.457.754,2.591,2.591,0,0,1,.161.908,2.511,2.511,0,0,1-.315,1.25,2.242,2.242,0,0,1-.879.876A2.574,2.574,0,0,1,9.163.122a2.478,2.478,0,0,1-1.416-.4,2.5,2.5,0,0,1-.911-1.184,5.151,5.151,0,0,1-.315-1.917,6.532,6.532,0,0,1,.19-1.65,3.471,3.471,0,0,1,.547-1.206,2.326,2.326,0,0,1,.864-.723A2.639,2.639,0,0,1,9.28-7.2a2.38,2.38,0,0,1,1.1.244,1.856,1.856,0,0,1,.718.605,1.254,1.254,0,0,1,.242.693.523.523,0,0,1-.151.364.5.5,0,0,1-.386.164.629.629,0,0,1-.381-.129.748.748,0,0,1-.259-.359,1.023,1.023,0,0,0-.356-.471.935.935,0,0,0-.566-.178,1.017,1.017,0,0,0-.515.149,1.341,1.341,0,0,0-.432.4A3.77,3.77,0,0,0,7.874-3.872ZM9.192-.84a1,1,0,0,0,.815-.4A1.641,1.641,0,0,0,10.33-2.3a1.773,1.773,0,0,0-.151-.764,1.14,1.14,0,0,0-.415-.488,1.057,1.057,0,0,0-.581-.168A1.131,1.131,0,0,0,8.6-3.56a1.193,1.193,0,0,0-.444.466,1.457,1.457,0,0,0-.168.715,1.736,1.736,0,0,0,.342,1.1A1.047,1.047,0,0,0,9.192-.84Zm8.4-2.671a8.372,8.372,0,0,1-.1,1.377,3.206,3.206,0,0,1-.361,1.045,2.4,2.4,0,0,1-.859.889A2.255,2.255,0,0,1,15.1.112a2.235,2.235,0,0,1-1.331-.42,2.556,2.556,0,0,1-.886-1.162,4.321,4.321,0,0,1-.222-.9,7.453,7.453,0,0,1-.071-1.062,10.2,10.2,0,0,1,.078-1.328,4.386,4.386,0,0,1,.244-1.016,2.3,2.3,0,0,1,.837-1.072,2.3,2.3,0,0,1,1.311-.369,2.445,2.445,0,0,1,.913.164,2.083,2.083,0,0,1,.72.479,2.736,2.736,0,0,1,.525.779A5.6,5.6,0,0,1,17.594-3.511Zm-1.338-.1a8.133,8.133,0,0,0-.107-1.462,1.8,1.8,0,0,0-.361-.859.885.885,0,0,0-.7-.291.9.9,0,0,0-.9.649,5.918,5.918,0,0,0-.251,2,8.606,8.606,0,0,0,.107,1.5,1.89,1.89,0,0,0,.361.886.855.855,0,0,0,.688.3.856.856,0,0,0,.7-.312,1.938,1.938,0,0,0,.356-.894A9.1,9.1,0,0,0,16.256-3.608Z" transform="translate(951 893)" fill="#737373"/>
    <circle id="Ellipse_12" data-name="Ellipse 12" cx="1.5" cy="1.5" r="1.5" transform="translate(969 884)" fill="#737373"/>
  </g>
</svg>
