<?xml version="1.0"?>
<svg xmlns="http://www.w3.org/2000/svg" xmlns:xlink="http://www.w3.org/1999/xlink" xmlns:svgjs="http://svgjs.com/svgjs" version="1.1" width="512" height="512" x="0" y="0" viewBox="0 0 512 512" style="enable-background:new 0 0 512 512" xml:space="preserve" class=""><g>
<g xmlns="http://www.w3.org/2000/svg">
	<g>
		<path d="M338.369,89.002H83.989C37.678,89.002,0,126.68,0,172.993v254.379c0,46.312,37.678,83.99,83.989,83.99h254.38    c46.311,0,83.989-37.678,83.989-83.99V172.993C422.358,126.68,384.68,89.002,338.369,89.002z M200.201,338.133    c0,18.771-5.475,32.602-16.424,41.494c-10.952,8.892-25.236,13.338-42.853,13.338c-18.609,0-32.726-4.607-42.358-13.831    c-9.633-9.22-14.449-19.593-14.449-31.121c0-4.773,1.15-8.066,3.459-9.879c2.304-1.81,6.256-2.717,11.855-2.717    c6.423,0,10.783,0.864,13.091,2.593c2.305,1.729,3.458,4.654,3.458,8.768c0,5.599,2.304,10.003,6.915,13.214    c4.608,3.211,10.868,4.816,18.772,4.816c9.22,0,15.93-2.1,20.129-6.299c4.199-4.199,6.299-10.991,6.299-20.376v-4.693    c0-15.641-9.057-23.464-27.169-23.464c-6.26,0-9.387-4.199-9.387-12.596c0-8.398,3.185-12.596,9.559-12.596    c7.186,0,12.743-1.593,16.664-4.789c3.921-3.196,5.886-9.621,5.886-19.285c0-14.41-7.248-21.619-21.735-21.619    c-14.657,0-21.983,5.487-21.983,16.459c0,8.189-5.105,12.284-15.313,12.284c-6.916,0-11.404-0.941-13.461-2.825    c-2.061-1.883-3.088-5.526-3.088-10.933c0-4.793,0.903-9.543,2.717-14.256c1.81-4.708,4.65-9.297,8.521-13.762    c3.866-4.461,9.509-8.1,16.919-10.91c7.41-2.81,16.054-4.215,25.934-4.215c34.906,0,52.361,14.793,52.361,44.369    c0,9.841-1.705,18.412-5.113,25.71c-3.408,7.302-8.185,12.346-14.334,15.132c16.749,6.587,25.127,19.019,25.127,37.295V338.133z     M338.515,334.922c0,19.597-5.272,33.923-15.807,42.977c-10.539,9.058-24.618,13.584-42.234,13.584h-43.718    c-4.118,0-7.494-0.988-10.127-2.964c-2.636-1.976-3.952-4.28-3.952-6.916V220.812c0-2.632,1.316-4.94,3.952-6.915    c2.632-1.976,6.009-2.964,10.127-2.964h43.718c17.617,0,31.696,4.531,42.234,13.584c10.535,9.058,15.807,23.383,15.807,42.977    V334.922z" fill="#ed691f" data-original="#000000" style="" class=""/>
	</g>
</g>
<g xmlns="http://www.w3.org/2000/svg">
	<g>
		<path d="M280.473,239.09h-25.687v124.236h25.687c17.29,0,25.934-9.466,25.934-28.404v-67.428    C306.407,248.56,297.763,239.09,280.473,239.09z" fill="#ed691f" data-original="#000000" style="" class=""/>
	</g>
</g>
<g xmlns="http://www.w3.org/2000/svg">
	<g>
		<path d="M362.218,0.638H156.27c-8.276,0-14.985,6.709-14.985,14.985c0,8.276,6.709,14.985,14.985,14.985h205.948    c66.064,0,119.812,53.747,119.812,119.811v205.949c0,8.276,6.709,14.985,14.985,14.985c8.276,0,14.985-6.709,14.985-14.985    V150.419C512,67.83,444.808,0.638,362.218,0.638z" fill="#ed691f" data-original="#000000" style="" class=""/>
	</g>
</g>
<g xmlns="http://www.w3.org/2000/svg">
</g>
<g xmlns="http://www.w3.org/2000/svg">
</g>
<g xmlns="http://www.w3.org/2000/svg">
</g>
<g xmlns="http://www.w3.org/2000/svg">
</g>
<g xmlns="http://www.w3.org/2000/svg">
</g>
<g xmlns="http://www.w3.org/2000/svg">
</g>
<g xmlns="http://www.w3.org/2000/svg">
</g>
<g xmlns="http://www.w3.org/2000/svg">
</g>
<g xmlns="http://www.w3.org/2000/svg">
</g>
<g xmlns="http://www.w3.org/2000/svg">
</g>
<g xmlns="http://www.w3.org/2000/svg">
</g>
<g xmlns="http://www.w3.org/2000/svg">
</g>
<g xmlns="http://www.w3.org/2000/svg">
</g>
<g xmlns="http://www.w3.org/2000/svg">
</g>
<g xmlns="http://www.w3.org/2000/svg">
</g>
</g></svg>
