<svg id="Aesthetics_48x48" data-name="Aesthetics/48x48" xmlns="http://www.w3.org/2000/svg" width="48" height="48" viewBox="0 0 48 48">
  <rect id="Rectangle_132" data-name="Rectangle 132" width="48" height="48" fill="#fc3" opacity="0"/>
  <g id="Group_160" data-name="Group 160" transform="translate(-24.886 -25.681)">
    <path id="Path_159" data-name="Path 159" d="M58.842,52.77A3.3,3.3,0,0,0,57.4,50.022c-2.736-1.676-2.495-5.05-1.041-7.65a3.711,3.711,0,0,0-1.135-5.206,10.137,10.137,0,0,0-5.38-1.485c-4.767,0-9.529,2.942-12.429,7.677a17.316,17.316,0,0,0-2.415,10.969A11.436,11.436,0,0,0,40,62.889a9.785,9.785,0,0,0,5.189,1.431h0c4.727,0,9.681-3.1,12.621-7.9A6.549,6.549,0,0,0,58.842,52.77ZM50.726,39.225a1.951,1.951,0,1,1-1.951,1.951A1.951,1.951,0,0,1,50.726,39.225ZM40.237,57.446a1.951,1.951,0,1,1,1.951-1.951A1.951,1.951,0,0,1,40.237,57.446Zm.251-6.551a1.951,1.951,0,1,1,1.951-1.951A1.951,1.951,0,0,1,40.488,50.9ZM42.4,43.5a1.951,1.951,0,1,1,1.951,1.951A1.951,1.951,0,0,1,42.4,43.5Zm3.383,17.631a1.952,1.952,0,1,1,1.951-1.952A1.951,1.951,0,0,1,45.786,61.134Zm6.642-6.646c-1.609,1.247-3.741,1.189-4.763-.129s-.544-3.4,1.065-4.645,3.742-1.189,4.764.13S54.038,53.241,52.428,54.488Z" fill="#737373"/>
    <g id="Group_159" data-name="Group 159">
      <path id="Path_160" data-name="Path 160" d="M59.562,41.108c0-.918.744-5.427,1.662-5.427s1.661,4.509,1.661,5.427a1.661,1.661,0,0,1-3.323,0Z" fill="#737373"/>
      <path id="Path_161" data-name="Path 161" d="M62.423,46.94c0,6.277-.537,17.38-1.2,17.38s-1.2-11.1-1.2-17.38.537-5.352,1.2-5.352S62.423,40.662,62.423,46.94Z" fill="#737373"/>
    </g>
  </g>
</svg>
