<?xml version="1.0"?>
<svg xmlns="http://www.w3.org/2000/svg" xmlns:xlink="http://www.w3.org/1999/xlink" xmlns:svgjs="http://svgjs.com/svgjs" version="1.1" width="512" height="512" x="0" y="0" viewBox="0 0 512 512" style="enable-background:new 0 0 512 512" xml:space="preserve" class=""><g transform="matrix(0.7,0,0,0.7,76.80000000000001,51.80000000000001)">
<g xmlns="http://www.w3.org/2000/svg">
	<rect x="90" y="226" width="211.25" height="60" fill="#737373" data-original="#000000" style="" class=""/>
	<path d="M0,376h512V136H0V376z M60,196h271.25v120H60V196z" fill="#737373" data-original="#000000" style="" class=""/>
	<rect x="451.75" y="16" width="60.25" height="90" fill="#737373" data-original="#000000" style="" class=""/>
	<polygon points="0,496 60.25,496 60.25,436 90.25,436 90.25,496 120.5,496 120.5,436 150.5,436 150.5,496 180.75,496 180.75,436    210.75,436 210.75,496 241,496 241,436 271,436 271,496 301.25,496 301.25,436 331.25,436 331.25,496 361.5,496 361.5,436    391.5,436 391.5,496 421.75,496 421.75,436 451.75,436 451.75,496 512,496 512,406 0,406  " fill="#737373" data-original="#000000" style="" class=""/>
	<rect x="331.25" y="16" width="90.5" height="90" fill="#737373" data-original="#000000" style="" class=""/>
	<polygon points="301.25,16 271,16 271,76 241,76 241,16 210.75,16 210.75,76 180.75,76 180.75,16 150.5,16 150.5,76 120.5,76    120.5,16 90.25,16 90.25,76 60.25,76 60.25,16 0,16 0,106 301.25,106  " fill="#737373" data-original="#000000" style="" class=""/>
</g>















</g></svg>
