<?xml version="1.0"?>
<svg xmlns="http://www.w3.org/2000/svg" xmlns:xlink="http://www.w3.org/1999/xlink" xmlns:svgjs="http://svgjs.com/svgjs" version="1.1" width="512" height="512" x="0" y="0" viewBox="0 0 24 24" style="enable-background:new 0 0 512 512" xml:space="preserve" class=""><g><path xmlns="http://www.w3.org/2000/svg" d="m18.25 8h-5.5c-.965 0-1.75.785-1.75 1.75v8.5c0 .965.785 1.75 1.75 1.75h5.5c.965 0 1.75-.785 1.75-1.75v-8.5c0-.965-.785-1.75-1.75-1.75zm-5.5 1.5h5.5c.138 0 .25.112.25.25v4.586c-.728-.489-1.811-.381-2.365.325l-.52.65c-.159.198-.319.074-.375.018-.683-.682-1.796-.683-2.48 0l-.26.26v-5.839c0-.138.112-.25.25-.25z" fill="#ed691f" data-original="#000000" style=""/><path xmlns="http://www.w3.org/2000/svg" d="m21 1h-18c-1.654 0-3 1.346-3 3v16c0 1.654 1.346 3 3 3h18c1.654 0 3-1.346 3-3v-16c0-1.654-1.346-3-3-3zm0 20h-18c-.551 0-1-.448-1-1v-14h20v14c0 .552-.449 1-1 1z" fill="#ed691f" data-original="#000000" style=""/><path xmlns="http://www.w3.org/2000/svg" d="m8 11h-3c-.552 0-1-.448-1-1s.448-1 1-1h3c.552 0 1 .448 1 1s-.448 1-1 1z" fill="#ed691f" data-original="#000000" style=""/><path xmlns="http://www.w3.org/2000/svg" d="m8 15h-3c-.552 0-1-.448-1-1s.448-1 1-1h3c.552 0 1 .448 1 1s-.448 1-1 1z" fill="#ed691f" data-original="#000000" style=""/><path xmlns="http://www.w3.org/2000/svg" d="m8 19h-3c-.552 0-1-.448-1-1s.448-1 1-1h3c.552 0 1 .448 1 1s-.448 1-1 1z" fill="#ed691f" data-original="#000000" style=""/></g></svg>
