<?xml version="1.0"?>
<svg xmlns="http://www.w3.org/2000/svg" xmlns:xlink="http://www.w3.org/1999/xlink" xmlns:svgjs="http://svgjs.com/svgjs" version="1.1" width="512" height="512" x="0" y="0" viewBox="0 0 512 512" style="enable-background:new 0 0 512 512" xml:space="preserve" class=""><g><g xmlns="http://www.w3.org/2000/svg" id="outline"><path d="M240,320h32a8,8,0,0,0,8-8V248a8,8,0,0,0-8-8H240a8,8,0,0,0-8,8v64A8,8,0,0,0,240,320Zm8-64h16v48H248Z" fill="#ed691f" data-original="#000000" style="" class=""/><path d="M256,232a24,24,0,1,0-24-24A24.027,24.027,0,0,0,256,232Zm0-32a8,8,0,1,1-8,8A8.009,8.009,0,0,1,256,200Z" fill="#ed691f" data-original="#000000" style="" class=""/><path d="M396,64H296V54.863a38.863,38.863,0,0,0-77.726,0V64H116A28.032,28.032,0,0,0,88,92V468a28.032,28.032,0,0,0,28,28H396a28.032,28.032,0,0,0,28-28V92A28.032,28.032,0,0,0,396,64ZM200,90a10.011,10.011,0,0,1,10-10h16.274a8,8,0,0,0,8-8V54.863a22.863,22.863,0,0,1,45.726,0V72a8,8,0,0,0,8,8h14a10.011,10.011,0,0,1,10,10v14H200Zm-8,30H320a8,8,0,0,0,8-8h38a10.011,10.011,0,0,1,10,10V438a10.011,10.011,0,0,1-10,10H146a10.011,10.011,0,0,1-10-10V122a10.011,10.011,0,0,1,10-10h38A8,8,0,0,0,192,120ZM408,468a12.013,12.013,0,0,1-12,12H116a12.013,12.013,0,0,1-12-12V92a12.013,12.013,0,0,1,12-12h70a25.843,25.843,0,0,0-2,10v6H146a26.029,26.029,0,0,0-26,26V438a26.029,26.029,0,0,0,26,26H366a26.029,26.029,0,0,0,26-26V122a26.029,26.029,0,0,0-26-26H328V90a25.843,25.843,0,0,0-2-10h70a12.013,12.013,0,0,1,12,12Z" fill="#ed691f" data-original="#000000" style="" class=""/><path d="M152,256A104.118,104.118,0,0,0,256,360q3.995,0,8-.308V376a8,8,0,0,0,13.657,5.657l48-48a7.986,7.986,0,0,0,1.2-1.543A104,104,0,1,0,152,256Zm104-88a88,88,0,0,1,58.2,154,7.993,7.993,0,0,0-1.788,2.275L280,356.687v-6.022a8,8,0,0,0-9.325-7.89A88,88,0,1,1,256,168Z" fill="#ed691f" data-original="#000000" style="" class=""/><circle cx="224" cy="408" r="8" fill="#ed691f" data-original="#000000" style="" class=""/><circle cx="256" cy="408" r="8" fill="#ed691f" data-original="#000000" style="" class=""/><circle cx="288" cy="408" r="8" fill="#ed691f" data-original="#000000" style="" class=""/></g></g></svg>
