<svg id="Durability_48x48" data-name="Durability/48x48" xmlns="http://www.w3.org/2000/svg" width="48" height="48" viewBox="0 0 48 48">
  <rect id="Rectangle_132" data-name="Rectangle 132" width="48" height="48" fill="#fc3" opacity="0"/>
  <g id="Group_157" data-name="Group 157" transform="translate(-26.263 -25.963)">
    <path id="Path_154" data-name="Path 154" d="M52.95,48l-.708-.707a5.378,5.378,0,0,0-1.414-1.026l-.588.587a1.737,1.737,0,0,0-.176,2.239c.07.06.137.12.205.188l.707.707a2.653,2.653,0,0,1,0,3.752h0l-6.65,6.639a2.659,2.659,0,0,1-3.752,0l-.726-.707a2.662,2.662,0,0,1,0-3.753l5.61-5.628a6.405,6.405,0,0,1-.24-3.608,5.3,5.3,0,0,0-.708.6l-6.649,6.635a5.475,5.475,0,0,0,0,7.732l.725.708a5.475,5.475,0,0,0,7.728,0l6.636-6.625A5.469,5.469,0,0,0,52.95,48Z" fill="#737373"/>
    <path id="Path_155" data-name="Path 155" d="M50.311,53.087a1.733,1.733,0,0,0,.181-2.239c-.071-.06-.142-.12-.206-.184l-.707-.725a2.66,2.66,0,0,1,0-3.753L56.2,39.547a2.66,2.66,0,0,1,3.753,0l.708.708a2.659,2.659,0,0,1,0,3.752l-5.592,5.628a6.406,6.406,0,0,1,.247,3.608,5.629,5.629,0,0,0,.708-.591l6.642-6.639a5.475,5.475,0,0,0,0-7.729l-.707-.725a5.477,5.477,0,0,0-7.729,0L47.573,44.2a5.477,5.477,0,0,0,0,7.729l.726.707a5.368,5.368,0,0,0,1.414,1.023Z" fill="#737373"/>
  </g>
</svg>
