<svg id="Engine_48x48" data-name="Engine/48x48" xmlns="http://www.w3.org/2000/svg" width="48" height="48" viewBox="0 0 48 48">
  <rect id="Rectangle_131" data-name="Rectangle 131" width="48" height="48" fill="#fc3" opacity="0"/>
  <path id="Path_140" data-name="Path 140" d="M64.762,45.75H60.631v2.477H59.393V46.576a.826.826,0,0,0-.828-.826H56.087V44.511a1.652,1.652,0,0,0-1.651-1.653H50.3v-1.2h3.166a.551.551,0,0,0,.255-.065.408.408,0,0,0,.3-.39v-1.69a.554.554,0,0,0-.552-.552H43.045a.554.554,0,0,0-.552.552v.7a.412.412,0,0,0-.037.168v.826a.407.407,0,0,0,.355.4.548.548,0,0,0,.235.054h3.129v1.2H42.87a1.654,1.654,0,0,0-1.654,1.653H38.739a.825.825,0,0,0-.826.826v3.519H36.7V44.937a.555.555,0,0,0-.552-.553H34.554a.554.554,0,0,0-.552.553V56.906a.553.553,0,0,0,.552.552h1.593a.554.554,0,0,0,.552-.552v-3.92h1.214v3.5a.826.826,0,0,0,.826.826h3.718l3.718,3.718H57.74a1.654,1.654,0,0,0,1.654-1.654V57.729h1.238v2.477h4.131S66,58.141,66,52.977,64.762,45.75,64.762,45.75Z" transform="translate(-26.002 -25.964)" fill="#737373"/>
</svg>
