<svg id="Hydraulics_48x48" data-name="Hydraulics/48x48" xmlns="http://www.w3.org/2000/svg" width="48" height="48" viewBox="0 0 48 48">
  <rect id="Rectangle_132" data-name="Rectangle 132" width="48" height="48" fill="#fc3" opacity="0"/>
  <g id="Group_154" data-name="Group 154" transform="translate(-1 -1.001)">
    <path id="Path_143" data-name="Path 143" d="M37.6,9.009a.418.418,0,0,0-.38.113l-.513.514a8.318,8.318,0,0,1,3.66,3.653l.507-.507a.437.437,0,0,0,.12-.386A5.651,5.651,0,0,0,37.6,9.009Z" fill="#737373"/>
    <path id="Path_144" data-name="Path 144" d="M17.2,29.809a7.332,7.332,0,0,1,2.966,3.013l6.48-6.48L23.66,23.355Z" fill="#737373"/>
    <path id="Path_145" data-name="Path 145" d="M16.087,30.449a.423.423,0,0,0-.38.12l-1.114,1.153a5.1,5.1,0,0,1,2.34,1.346,5.167,5.167,0,0,1,1.333,2.287l1.094-1.133a.425.425,0,0,0,.12-.38A5.659,5.659,0,0,0,16.087,30.449Z" fill="#737373"/>
    <path id="Path_146" data-name="Path 146" d="M10.239,33.775a4.232,4.232,0,1,0,5.985,0A4.233,4.233,0,0,0,10.239,33.775Zm4.19,4.189a1.693,1.693,0,1,1,0-2.394A1.691,1.691,0,0,1,14.429,37.964Z" fill="#737373"/>
    <path id="Path_147" data-name="Path 147" d="M35.949,10.407a.837.837,0,0,0-.846.213L24.318,21.405a.846.846,0,0,0,0,1.2l3.079,3.08a.847.847,0,0,0,1.2,0L39.38,14.9a.838.838,0,0,0,.213-.846A7.025,7.025,0,0,0,35.949,10.407Z" fill="#737373"/>
  </g>
</svg>
