<svg id="Maintenance_48x48" data-name="Maintenance/48x48" xmlns="http://www.w3.org/2000/svg" width="48" height="48" viewBox="0 0 48 48">
  <rect id="Rectangle_132" data-name="Rectangle 132" width="48" height="48" fill="#fc3" opacity="0"/>
  <g id="Group_158" data-name="Group 158" transform="translate(8.552 8.388)">
    <path id="Path_156" data-name="Path 156" d="M23.364,19.22l-7.375-7.375A6.959,6.959,0,0,0,5.045,4.15l6.069,3.505L8.393,12.368,2.475,8.95a6.956,6.956,0,0,0,9.205,7.2l7.375,7.376a5.116,5.116,0,1,0,4.309-4.309Zm2.208,6.517a2.069,2.069,0,1,1,0-2.926A2.07,2.07,0,0,1,25.572,25.737Z" fill="#737373"/>
    <path id="Path_157" data-name="Path 157" d="M9.4,18.478c-.114,0-.227-.012-.341-.017L5.326,22.194a4.026,4.026,0,0,0,5.694,5.694l4.823-4.823-4.749-4.75A8.877,8.877,0,0,1,9.4,18.478Z" fill="#737373"/>
    <path id="Path_158" data-name="Path 158" d="M25.824,9.371l1.882-.63,1.848-3.079-1-1-1-1L24.475,5.509l-.631,1.882-4.78,4.78,1.98,1.98Z" fill="#737373"/>
  </g>
</svg>
