<svg id="Safety_48x48" data-name="Safety/48x48" xmlns="http://www.w3.org/2000/svg" width="48" height="48" viewBox="0 0 48 48">
  <rect id="Rectangle_132" data-name="Rectangle 132" width="48" height="48" fill="#fc3" opacity="0"/>
  <g id="Group_155" data-name="Group 155" transform="translate(-18.902 -19.666)">
    <path id="Path_148" data-name="Path 148" d="M53.006,49.637a46.211,46.211,0,0,1-9.977.939,49.244,49.244,0,0,1-9.976-.939,6.86,6.86,0,0,1-.718-.179,8.128,8.128,0,0,0-.038.984c0,7.016,4.8,12.692,10.732,12.692s10.732-5.676,10.732-12.692a9.107,9.107,0,0,0-.037-.984A6.912,6.912,0,0,1,53.006,49.637Z" transform="translate(0 -1.468)" fill="#737373"/>
    <path id="Path_149" data-name="Path 149" d="M55.137,42.8h-.981V39.046a11,11,0,0,0-4.078-8.76v7.329a1.209,1.209,0,0,1-1.1,1.252,1.18,1.18,0,0,1-1.1-1.252V28.409a1.648,1.648,0,0,0-1.529-1.743H39.686a1.65,1.65,0,0,0-1.529,1.743V37.66a1.208,1.208,0,0,1-1.1,1.251,1.179,1.179,0,0,1-1.1-1.251V30.331a10.935,10.935,0,0,0-4.079,8.759v3.754H30.823a2.072,2.072,0,0,0-1.921,2.19c0,1.7,6.274,3.084,14.039,3.084S56.98,46.732,56.98,45.034A2.029,2.029,0,0,0,55.137,42.8Z" fill="#737373"/>
  </g>
</svg>
