<?xml version="1.0"?>
<svg xmlns="http://www.w3.org/2000/svg" xmlns:xlink="http://www.w3.org/1999/xlink" xmlns:svgjs="http://svgjs.com/svgjs" version="1.1" width="512" height="512" x="0" y="0" viewBox="0 0 512 512" style="enable-background:new 0 0 512 512" xml:space="preserve" class=""><g transform="matrix(0.7800000000000001,0,0,0.7800000000000001,56.319999999999965,6.320182533264102)">
<g xmlns="http://www.w3.org/2000/svg">
	<g>
		<path d="M322.486,64.403c-5.858-5.858-15.354-5.858-21.212,0c-5.324,5.325-5.857,15.354,0,21.212    c5.591,5.591,15.621,5.591,21.212,0C328.344,79.757,328.344,70.261,322.486,64.403z" fill="#737373" data-original="#000000" style="" class=""/>
	</g>
</g>
<g xmlns="http://www.w3.org/2000/svg">
	<g>
		<path d="M430.077,323.993c-29.241-29.241-76.819-29.239-106.058,0c-29.241,29.241-29.241,76.819,0,106.059    c28.973,28.973,77.084,28.974,106.058,0C459.319,400.812,458.785,352.701,430.077,323.993z M408.867,408.84    c-17.543,17.543-46.091,17.545-63.636,0c-18.077-18.078-17.544-46.091,0-63.636c17.542-17.543,46.09-17.546,63.636,0    C426.41,362.749,426.41,391.296,408.867,408.84z" fill="#737373" data-original="#000000" style="" class=""/>
	</g>
</g>
<g xmlns="http://www.w3.org/2000/svg">
	<g>
		<path d="M500.962,323.46c-0.002-0.006-0.004-0.011-0.006-0.017L380.723,45.251c-0.004-0.009-0.009-0.017-0.012-0.025    c-3.751-8.69-9.066-16.511-15.801-23.245c-25.541-25.541-65.684-29.255-95.448-8.824c-0.044,0.03-0.086,0.064-0.131,0.094    c-0.015,0.011-0.031,0.019-0.047,0.03L45.461,171.71c-0.009,0.006-0.016,0.013-0.025,0.02C16.982,191.359,0,223.665,0,258.203    c0,37.687,20.371,72.68,53.162,91.326c0.014,0.008,0.029,0.016,0.044,0.024c0.003,0.002,0.005,0.004,0.008,0.005    c0.315,0.177,256.827,144.67,257.162,144.856c20.724,11.762,43.725,17.578,66.658,17.578c35.195,0,69.62-13.666,95.469-39.515    C512.356,432.621,522.45,373.318,500.962,323.46z M280.063,43.392c18.198-18.199,45.612-18.024,63.636,0    c17.612,17.612,18.133,45.502,0,63.635c-17.862,17.862-46.587,17.049-63.636,0C262.749,89.713,261.932,61.525,280.063,43.392z     M29.798,258.203c0-41.053,33.438-75.395,75.195-75.395c41.352,0,75.195,34.043,75.195,75.395    c0,41.352-33.843,74.995-75.195,74.995C63.091,333.198,29.798,299.062,29.798,258.203z M132.193,359.616    c44.75-12.014,77.794-52.924,77.794-101.413c0-52.227-38.333-95.664-88.34-103.667l115.308-81.62    c-0.07,2.515-0.029,5.041,0.155,7.57c1.306,17.95,9.027,34.839,21.743,47.553c26.172,26.173,67.572,29.229,97.24,7.557    l0.001-0.001c8.302-6.067,15.561-14.019,20.916-23.324l62.737,145.161c-49.866-26.169-114.608-19.404-158.149,24.139    c-28.173,28.172-41.93,66.697-39.124,105.313c1.006,13.839,4.135,27.324,9.175,40.019L132.193,359.616z M438.932,461.853    c-41.211,30.107-99.153,26.38-136.125-10.589c-40.901-40.901-41.602-106.878,0-148.482c41.206-41.205,107.281-41.202,148.483,0    C496.08,347.573,491.994,423.088,438.932,461.853z" fill="#737373" data-original="#000000" style="" class=""/>
	</g>
</g>
<g xmlns="http://www.w3.org/2000/svg">
	<g>
		<path d="M387.654,366.417c-5.858-5.858-15.354-5.858-21.212,0c-5.858,5.858-5.858,15.354,0,21.212    c5.591,5.591,15.621,5.591,21.212,0C393.512,381.771,393.512,372.275,387.654,366.417z" fill="#737373" data-original="#000000" style="" class=""/>
	</g>
</g>
<g xmlns="http://www.w3.org/2000/svg">
	<g>
		<path d="M104.993,213.206c-24.811,0-44.997,20.186-44.997,44.997S80.182,302.8,104.993,302.8s44.997-19.786,44.997-44.597    C149.99,233.391,129.805,213.206,104.993,213.206z M104.993,273.202c-8.27,0-15.199-6.729-15.199-14.999    c0-8.27,6.929-14.999,15.199-14.999s15.199,6.729,15.199,14.999C120.192,266.473,113.264,273.202,104.993,273.202z" fill="#737373" data-original="#000000" style="" class=""/>
	</g>
</g>
<g xmlns="http://www.w3.org/2000/svg">
</g>
<g xmlns="http://www.w3.org/2000/svg">
</g>
<g xmlns="http://www.w3.org/2000/svg">
</g>
<g xmlns="http://www.w3.org/2000/svg">
</g>
<g xmlns="http://www.w3.org/2000/svg">
</g>
<g xmlns="http://www.w3.org/2000/svg">
</g>
<g xmlns="http://www.w3.org/2000/svg">
</g>
<g xmlns="http://www.w3.org/2000/svg">
</g>
<g xmlns="http://www.w3.org/2000/svg">
</g>
<g xmlns="http://www.w3.org/2000/svg">
</g>
<g xmlns="http://www.w3.org/2000/svg">
</g>
<g xmlns="http://www.w3.org/2000/svg">
</g>
<g xmlns="http://www.w3.org/2000/svg">
</g>
<g xmlns="http://www.w3.org/2000/svg">
</g>
<g xmlns="http://www.w3.org/2000/svg">
</g>
</g></svg>
